<svg xmlns="http://www.w3.org/2000/svg" width="560" height="302" viewBox="0 0 560 302" role="img" aria-label="Skills DFW entry-level IT employers asked for this week">
<style>
.bg{fill:#ffffff}.t{fill:#17191c;font:600 15px -apple-system,Segoe UI,Helvetica,Arial,sans-serif}
.s{fill:#5d636e;font:12px -apple-system,Segoe UI,Helvetica,Arial,sans-serif}
.l{fill:#17191c;font:13px -apple-system,Segoe UI,Helvetica,Arial,sans-serif}
.have{fill:#2f855a}.learning{fill:#b7791f}.gap{fill:#a0aec0}.track{fill:#edf0f4}
.m-have{fill:#2f855a}.m-learning{fill:#b7791f}.m-gap{fill:#a0aec0}
@media (prefers-color-scheme: dark){.bg{fill:#0d1117}.t,.l{fill:#e6edf3}.s{fill:#8b949e}.track{fill:#21262d}}
</style>
<rect class="bg" width="560" height="302" rx="8"/>
<text class="t" x="16" y="26">What DFW entry-level IT employers asked for this week</text>
<text class="s" x="16" y="46">17 postings · updated 2026-10-03 · ✓ I have it · ◐ learning · ○ not yet</text>
<text class="l m-gap" x="16" y="77">○</text>
<text class="l" x="34" y="77">Hardware troubleshooting</text>
<rect class="track" x="190" y="66" width="250" height="14" rx="3"/>
<rect class="gap" x="190" y="66" width="88" height="14" rx="3"/>
<text class="s" x="450" y="77">35%</text>
<text class="l m-have" x="16" y="103">✓</text>
<text class="l" x="34" y="103">Windows</text>
<rect class="track" x="190" y="92" width="250" height="14" rx="3"/>
<rect class="have" x="190" y="92" width="30" height="14" rx="3"/>
<text class="s" x="450" y="103">12%</text>
<text class="l m-gap" x="16" y="129">○</text>
<text class="l" x="34" y="129">Google Workspace</text>
<rect class="track" x="190" y="118" width="250" height="14" rx="3"/>
<rect class="gap" x="190" y="118" width="30" height="14" rx="3"/>
<text class="s" x="450" y="129">12%</text>
<text class="l m-gap" x="16" y="155">○</text>
<text class="l" x="34" y="155">Slack</text>
<rect class="track" x="190" y="144" width="250" height="14" rx="3"/>
<rect class="gap" x="190" y="144" width="30" height="14" rx="3"/>
<text class="s" x="450" y="155">12%</text>
<text class="l m-gap" x="16" y="181">○</text>
<text class="l" x="34" y="181">Active Directory</text>
<rect class="track" x="190" y="170" width="250" height="14" rx="3"/>
<rect class="gap" x="190" y="170" width="30" height="14" rx="3"/>
<text class="s" x="450" y="181">12%</text>
<text class="l m-gap" x="16" y="207">○</text>
<text class="l" x="34" y="207">Ticketing systems</text>
<rect class="track" x="190" y="196" width="250" height="14" rx="3"/>
<rect class="gap" x="190" y="196" width="30" height="14" rx="3"/>
<text class="s" x="450" y="207">12%</text>
<text class="l m-gap" x="16" y="233">○</text>
<text class="l" x="34" y="233">Operating systems</text>
<rect class="track" x="190" y="222" width="250" height="14" rx="3"/>
<rect class="gap" x="190" y="222" width="15" height="14" rx="3"/>
<text class="s" x="450" y="233">6%</text>
<text class="l m-gap" x="16" y="259">○</text>
<text class="l" x="34" y="259">Networking protocols</text>
<rect class="track" x="190" y="248" width="250" height="14" rx="3"/>
<rect class="gap" x="190" y="248" width="15" height="14" rx="3"/>
<text class="s" x="450" y="259">6%</text>
</svg>
