<svg xmlns="http://www.w3.org/2000/svg" width="560" height="380" viewBox="0 0 560 380" role="img" aria-label="Skills DFW entry-level IT employers are asking for">
<style>
.bg{fill:#ffffff}.t{fill:#17191c;font:600 15px -apple-system,Segoe UI,Helvetica,Arial,sans-serif}
.s{fill:#5d636e;font:12px -apple-system,Segoe UI,Helvetica,Arial,sans-serif}
.l{fill:#17191c;font:13px -apple-system,Segoe UI,Helvetica,Arial,sans-serif}
.bar{fill:#3b6fd4}.track{fill:#edf0f4}
@media (prefers-color-scheme: dark){.bg{fill:#0d1117}.t,.l{fill:#e6edf3}.s{fill:#8b949e}.track{fill:#21262d}.bar{fill:#6f9bff}}
</style>
<rect class="bg" width="560" height="380" rx="8"/>
<text class="t" x="16" y="26">Skills DFW entry-level IT employers are asking for</text>
<text class="s" x="16" y="46">12 relevant postings from the last 14 days · updated 2026-10-03</text>
<text class="l" x="16" y="77">Windows</text>
<rect class="track" x="190" y="66" width="250" height="14" rx="3"/>
<rect class="bar" x="190" y="66" width="168" height="14" rx="3"/>
<text class="s" x="450" y="77">67%</text>
<text class="l" x="16" y="103">Active Directory</text>
<rect class="track" x="190" y="92" width="250" height="14" rx="3"/>
<rect class="bar" x="190" y="92" width="62" height="14" rx="3"/>
<text class="s" x="450" y="103">25%</text>
<text class="l" x="16" y="129">macOS</text>
<rect class="track" x="190" y="118" width="250" height="14" rx="3"/>
<rect class="bar" x="190" y="118" width="62" height="14" rx="3"/>
<text class="s" x="450" y="129">25%</text>
<text class="l" x="16" y="155">Google Workspace</text>
<rect class="track" x="190" y="144" width="250" height="14" rx="3"/>
<rect class="bar" x="190" y="144" width="42" height="14" rx="3"/>
<text class="s" x="450" y="155">17%</text>
<text class="l" x="16" y="181">Hardware troubleshooting</text>
<rect class="track" x="190" y="170" width="250" height="14" rx="3"/>
<rect class="bar" x="190" y="170" width="42" height="14" rx="3"/>
<text class="s" x="450" y="181">17%</text>
<text class="l" x="16" y="207">AWS</text>
<rect class="track" x="190" y="196" width="250" height="14" rx="3"/>
<rect class="bar" x="190" y="196" width="20" height="14" rx="3"/>
<text class="s" x="450" y="207">8%</text>
<text class="l" x="16" y="233">CMMC</text>
<rect class="track" x="190" y="222" width="250" height="14" rx="3"/>
<rect class="bar" x="190" y="222" width="20" height="14" rx="3"/>
<text class="s" x="450" y="233">8%</text>
<text class="l" x="16" y="259">Group Policy</text>
<rect class="track" x="190" y="248" width="250" height="14" rx="3"/>
<rect class="bar" x="190" y="248" width="20" height="14" rx="3"/>
<text class="s" x="450" y="259">8%</text>
<text class="l" x="16" y="285">Intune</text>
<rect class="track" x="190" y="274" width="250" height="14" rx="3"/>
<rect class="bar" x="190" y="274" width="20" height="14" rx="3"/>
<text class="s" x="450" y="285">8%</text>
<text class="l" x="16" y="311">Microsoft Azure</text>
<rect class="track" x="190" y="300" width="250" height="14" rx="3"/>
<rect class="bar" x="190" y="300" width="20" height="14" rx="3"/>
<text class="s" x="450" y="311">8%</text>
<text class="l" x="16" y="337">Ticketing systems</text>
<rect class="track" x="190" y="326" width="250" height="14" rx="3"/>
<rect class="bar" x="190" y="326" width="20" height="14" rx="3"/>
<text class="s" x="450" y="337">8%</text>
</svg>
